<svg height="512" viewBox="0 0 64 64" width="512" xmlns="http://www.w3.org/2000/svg" xmlns:xlink="http://www.w3.org/1999/xlink"><linearGradient id="New_Gradient_Swatch_copy_2" gradientUnits="userSpaceOnUse" x1="36.835" x2="36.835" y1="63.058" y2="2.717"><stop offset="0" stop-color="#6713d2"/><stop offset="1" stop-color="#cc208e"/></linearGradient><linearGradient id="New_Gradient_Swatch_copy_2-2" x1="32" x2="32" xlink:href="#New_Gradient_Swatch_copy_2" y1="63.058" y2="2.717"/><linearGradient id="New_Gradient_Swatch_copy_2-3" x1="27.17" x2="27.17" xlink:href="#New_Gradient_Swatch_copy_2" y1="63.058" y2="2.717"/><linearGradient id="New_Gradient_Swatch_copy_2-5" x1="51.362" x2="51.362" xlink:href="#New_Gradient_Swatch_copy_2" y1="63.058" y2="2.717"/><linearGradient id="New_Gradient_Swatch_copy_2-6" x1="45.5" x2="45.5" xlink:href="#New_Gradient_Swatch_copy_2" y1="63.058" y2="2.717"/><linearGradient id="New_Gradient_Swatch_copy_2-7" x1="52.5" x2="52.5" xlink:href="#New_Gradient_Swatch_copy_2" y1="63.058" y2="2.717"/><linearGradient id="New_Gradient_Swatch_copy_2-8" x1="46.638" x2="46.638" xlink:href="#New_Gradient_Swatch_copy_2" y1="63.058" y2="2.717"/><linearGradient id="New_Gradient_Swatch_copy_2-9" x1="31.974" x2="31.974" xlink:href="#New_Gradient_Swatch_copy_2" y1="63.058" y2="2.717"/><linearGradient id="New_Gradient_Swatch_copy_2-12" x1="17.5" x2="17.5" xlink:href="#New_Gradient_Swatch_copy_2" y1="63.058" y2="2.717"/><linearGradient id="New_Gradient_Swatch_copy_2-13" x1="23.362" x2="23.362" xlink:href="#New_Gradient_Swatch_copy_2" y1="63.058" y2="2.717"/><linearGradient id="New_Gradient_Swatch_copy_2-14" x1="34.547" x2="34.547" xlink:href="#New_Gradient_Swatch_copy_2" y1="63.058" y2="2.717"/><linearGradient id="New_Gradient_Swatch_copy_2-15" x1="18.638" x2="18.638" xlink:href="#New_Gradient_Swatch_copy_2" y1="63.058" y2="2.717"/><linearGradient id="New_Gradient_Swatch_copy_2-16" x1="24.5" x2="24.5" xlink:href="#New_Gradient_Swatch_copy_2" y1="63.058" y2="2.717"/><g id="Electric_Vehicle_Engineering_Certificate-Certificate-Training-Degree-Certification" data-name="Electric Vehicle Engineering Certificate-Certificate-Training-Degree-Certification"><path d="m34.14 34.7 1.92 3.33.47-1.76a1.013 1.013 0 0 1 1.23-.71l1.77.47-1.93-3.33a7.972 7.972 0 0 1 -3.46 2z" fill="url(#New_Gradient_Swatch_copy_2)"/><path d="m14 29h10.26a8.242 8.242 0 0 1 -.26-2 8 8 0 0 1 16 0 8.242 8.242 0 0 1 -.26 2h10.26v-24h-36zm34-4a2 2 0 0 1 -2 2h-3v-2h3v-3h2zm-5-18h3a2 2 0 0 1 2 2v3h-2v-3h-3zm0 10h-22v-2h22zm-18-6h14v2h-14zm-9-2a2 2 0 0 1 2-2h3v2h-3v3h-2zm0 13h2v3h3v2h-3a2 2 0 0 1 -2-2z" fill="url(#New_Gradient_Swatch_copy_2-2)"/><path d="m27.47 36.27.47 1.76 1.92-3.33a7.972 7.972 0 0 1 -3.46-2l-1.92 3.33 1.76-.47a1.013 1.013 0 0 1 1.23.71z" fill="url(#New_Gradient_Swatch_copy_2-3)"/><path d="m32 21a6 6 0 1 0 6 6 6 6 0 0 0 -6-6zm2.8 6.6-3 4-1.6-1.2 1.8-2.4h-2a1 1 0 0 1 -.8-1.6l3-4 1.6 1.2-1.8 2.4h2a1 1 0 0 1 .8 1.6z" fill="url(#New_Gradient_Swatch_copy_2-2)"/><path d="m50 49.1v3.167l2.723-1.567a4.979 4.979 0 0 0 -2.723-1.6z" fill="url(#New_Gradient_Swatch_copy_2-5)"/><path d="m44 54a4.918 4.918 0 0 0 .278 1.572l2.722-1.572-2.722-1.572a4.918 4.918 0 0 0 -.278 1.572z" fill="url(#New_Gradient_Swatch_copy_2-6)"/><path d="m54 54a4.918 4.918 0 0 0 -.278-1.572l-2.722 1.572 2.722 1.572a4.918 4.918 0 0 0 .278-1.572z" fill="url(#New_Gradient_Swatch_copy_2-7)"/><path d="m48 49.1a4.979 4.979 0 0 0 -2.723 1.6l2.723 1.568z" fill="url(#New_Gradient_Swatch_copy_2-8)"/><path d="m58 55.194v-7.194h-2v-2h2v-.27a1 1 0 0 0 -.869-.991l-11.781-1.679-1.3 1.307a8.928 8.928 0 0 1 -6.36 2.633h-9.72a3.032 3.032 0 0 1 -1.493-.4 12.4 12.4 0 0 0 -2.051-.924 13.116 13.116 0 0 0 -1.336-.376 12.522 12.522 0 0 0 -8.59 1.188l-8.026 4.312a1.008 1.008 0 0 0 -.34 1.468l3.38 4.732h5.171a7 7 0 1 1 12.63 0h15.37a7 7 0 1 1 13.1-1.311zm-18-5.194h-4v-2h4z" fill="url(#New_Gradient_Swatch_copy_2-9)"/><path d="m50 58.9a4.979 4.979 0 0 0 2.723-1.6l-2.723-1.568z" fill="url(#New_Gradient_Swatch_copy_2-5)"/><path d="m48 55.732-2.723 1.568a4.979 4.979 0 0 0 2.723 1.6z" fill="url(#New_Gradient_Swatch_copy_2-8)"/><path d="m16 54a4.918 4.918 0 0 0 .278 1.572l2.722-1.572-2.722-1.572a4.918 4.918 0 0 0 -.278 1.572z" fill="url(#New_Gradient_Swatch_copy_2-12)"/><path d="m22 58.9a4.979 4.979 0 0 0 2.723-1.6l-2.723-1.568z" fill="url(#New_Gradient_Swatch_copy_2-13)"/><path d="m25.51 43.957a14.348 14.348 0 0 1 1.951.9 1.022 1.022 0 0 0 .509.143h9.72a6.945 6.945 0 0 0 4.943-2.047l.95-.95a4.991 4.991 0 0 0 -2.6-1.359l-7.483-1.35a2.948 2.948 0 0 0 -2.288.52z" fill="url(#New_Gradient_Swatch_copy_2-14)"/><path d="m20 49.1a4.979 4.979 0 0 0 -2.723 1.6l2.723 1.568z" fill="url(#New_Gradient_Swatch_copy_2-15)"/><path d="m26 54a4.918 4.918 0 0 0 -.278-1.572l-2.722 1.572 2.722 1.572a4.918 4.918 0 0 0 .278-1.572z" fill="url(#New_Gradient_Swatch_copy_2-16)"/><path d="m20 55.732-2.723 1.568a4.979 4.979 0 0 0 2.723 1.6z" fill="url(#New_Gradient_Swatch_copy_2-15)"/><path d="m22 49.1v3.167l2.723-1.567a4.979 4.979 0 0 0 -2.723-1.6z" fill="url(#New_Gradient_Swatch_copy_2-13)"/></g></svg>